<svg width="40px" height="40px" viewBox="0 0 40 40" version="1.1" xmlns="http://www.w3.org/2000/svg" xmlns:xlink="http://www.w3.org/1999/xlink">
    <defs>
        <polygon id="path-1" points="0.0134745418 0.0290020367 39.8845621 0.0290020367 39.8845621 23.3808429 0.0134745418 23.3808429"></polygon>
    </defs>
    <g stroke="none" stroke-width="1" fill="none" fill-rule="evenodd">
        <g transform="translate(0.000000, 8.000000)">
            <path d="M0.1,15.1943136 C0.0662660944,15.2365947 0.0329613734,15.2789572 0,15.3214827 L0.1,15.1943136 Z" id="Fill-1" fill="#000000"></path>
            <g transform="translate(0.081466, 0.052464)">
                <mask id="mask-2" fill="white">
                    <use xlink:href="#path-1"></use>
                </mask>
                <path d="M39.876611,17.4706802 C39.8791365,17.4672587 39.8818248,17.4638371 39.8845947,17.4604155 C38.7240244,19.0037963 32.7189735,22.920945 27.599055,16.1105173 L20.2124969,6.28591446 C21.610053,5.0635112 23.1299715,4.60208554 24.5687495,6.5139389 L30.2542892,14.0763014 C32.1249206,16.5644481 34.2067943,17.4949572 35.9875682,16.9999674 L35.9878941,17.0004562 C35.9983218,16.9975234 36.0085866,16.9939389 36.0189328,16.9909246 C36.0520896,16.9814745 36.0850835,16.9714542 36.1179145,16.960945 C36.1346965,16.9555682 36.1515601,16.9501914 36.1682607,16.9445703 C36.2038615,16.9325947 36.2392994,16.9198859 36.2745743,16.9067699 C36.2868758,16.9022077 36.2990957,16.898053 36.3113157,16.8933279 C36.3571813,16.8757312 36.4028024,16.8570754 36.4482607,16.837442 C36.4628432,16.831169 36.4771813,16.8244073 36.4916823,16.8179715 C36.5238615,16.8036334 36.5558778,16.788888 36.5878126,16.7734908 C36.605165,16.7651813 36.6224358,16.7566273 36.6397067,16.7479919 C36.6701752,16.7327576 36.7004807,16.7169532 36.7307047,16.7008228 C36.7465092,16.6923503 36.7623951,16.6841222 36.7782811,16.6754053 C36.8218656,16.6512912 36.8652872,16.626444 36.9083014,16.6004562 C36.9197882,16.5935316 36.931112,16.5861996 36.9425173,16.579112 C36.9755927,16.5587454 37.0084236,16.5379715 37.0411731,16.5164644 C37.058444,16.5050591 37.0756334,16.4934094 37.0928228,16.4816782 C37.1201141,16.4631853 37.1473238,16.4442037 37.1744521,16.4248961 C37.1918045,16.4125132 37.2092383,16.4001303 37.2265092,16.3874216 C37.257222,16.3647739 37.2877719,16.3414745 37.3181589,16.3178493 C37.3305418,16.3081548 37.3430061,16.2989491 37.355389,16.2891731 C37.3957149,16.2571568 37.4356334,16.224 37.4753075,16.19011 C37.4920081,16.1760163 37.5083829,16.1613523 37.5248391,16.1469328 C37.5501752,16.1246925 37.5755112,16.1022077 37.6006843,16.0791527 C37.6181181,16.0631853 37.6356334,16.0469735 37.6529857,16.0305988 C37.6784847,16.0066477 37.7036578,15.9822077 37.7289124,15.957442 C37.744391,15.9421263 37.7600326,15.9272179 37.7754297,15.9116578 C37.8133931,15.8734501 37.8509491,15.8344277 37.8882607,15.7944277 C37.9023544,15.7792749 37.9162037,15.7635519 37.9301344,15.7481548 C37.9556334,15.7202933 37.980888,15.6921874 38.0060611,15.6634297 C38.0222729,15.6447739 38.0385662,15.6258737 38.0546965,15.6068921 C38.0780774,15.5793564 38.1012953,15.5514134 38.1244318,15.5232261 C38.1397475,15.5044888 38.1550631,15.4859959 38.1702974,15.4669328 C38.2008473,15.4287251 38.2310713,15.3897026 38.2611324,15.3501914 C38.2672424,15.3420448 38.2735967,15.334387 38.2797067,15.3262403 L27.9755927,1.61968228 C26.7739633,0.0215560081 25.2817434,-0.192211813 23.8289532,0.275731161 C22.8687902,0.585059063 21.9258167,1.19173931 21.0955112,1.89414257 L20.823169,2.12330754 L18.5325784,4.05145418 L16.9698086,1.97292057 C16.7871609,1.72990631 16.5935967,1.50970265 16.3911527,1.31230957 C16.3672016,1.28892872 16.3424358,1.26758452 16.3181589,1.2448554 C16.2742485,1.20355193 16.230501,1.16167821 16.185776,1.12249287 C14.2433727,-0.578525458 11.5887902,-0.295022403 9.88378004,1.97292057 L4.2652057,9.44640326 L4.24956415,9.46725866 C4.24923829,9.46758452 4.24899389,9.46791039 4.24874949,9.46823625 L4.24744603,9.46994705 L4.24190631,9.47719756 L4.22325051,9.50220774 L3.21428921,10.8443666 C3.21428921,10.8443666 3.2167332,10.844611 3.22105092,10.8450183 L0.0134745418,15.1418819 C1.94862729,12.5844888 5.10194705,10.6037963 7.79164155,14.1813931 L13.2117637,21.3905988 C14.4544521,23.0432261 16.1089532,22.9856293 17.4817434,22.3675438 L17.4818248,22.3677882 C17.4867943,22.3655886 17.4916823,22.3631446 17.4965703,22.3608635 C17.5501752,22.3365051 17.6035356,22.3114134 17.6563259,22.2854257 C17.6622729,22.2824114 17.6683014,22.2793971 17.6743299,22.2763829 C17.7254908,22.2509654 17.7762444,22.2247332 17.8265092,22.1979308 C17.8319674,22.194998 17.8375071,22.1921466 17.8429654,22.1892138 C17.894778,22.1612709 17.9459389,22.1325947 17.996611,22.1033483 C18.0058982,22.0979715 18.0151853,22.0925947 18.024554,22.0871365 C18.0749002,22.0577271 18.1247576,22.0278289 18.1739633,21.9971976 C18.1789328,21.9941018 18.1838208,21.9909246 18.1887902,21.9878289 C18.2358778,21.9583381 18.2823136,21.9283585 18.3281792,21.8979715 C18.3346151,21.8936538 18.3411324,21.889499 18.3474868,21.8851813 C18.3946558,21.8538167 18.4409287,21.8218004 18.4866314,21.7895397 C18.4957556,21.7831039 18.5047169,21.776668 18.5137597,21.7702322 C18.5594623,21.7375642 18.6046762,21.7046517 18.648831,21.671332 C18.6529857,21.6681548 18.6570591,21.6649776 18.6612138,21.6618004 C18.703169,21.63011 18.7443096,21.5980937 18.7847984,21.565833 C18.7919674,21.5601303 18.7991365,21.5544277 18.8063055,21.5487251 C18.8477719,21.5154053 18.8882607,21.4819226 18.9280978,21.448277 C18.9367332,21.4410265 18.9451242,21.433776 18.9536782,21.4266069 C18.9936782,21.3924725 19.0330265,21.3582566 19.0712342,21.3238778 C19.0749002,21.3206191 19.0784033,21.317279 19.0820692,21.3140204 C19.1180774,21.2815153 19.1531079,21.2490102 19.1875682,21.2164236 C19.1946558,21.2096619 19.2018248,21.2029817 19.2089124,21.1963014 C19.2441059,21.1625743 19.2783218,21.1289287 19.311723,21.0953646 C19.3191365,21.0878697 19.3264684,21.0804562 19.3338004,21.0729613 C19.3676904,21.0384196 19.4009287,21.0039593 19.4328635,20.9696619 C19.4345743,20.9678697 19.4362037,20.9660774 19.437833,20.9642037 C19.4689532,20.930721 19.4987699,20.8974012 19.5279348,20.8642444 C19.533556,20.8578086 19.5393401,20.8512912 19.5450428,20.8447739 C19.5738819,20.8114542 19.6017434,20.7784603 19.6285458,20.7455479 C19.6336782,20.7392749 19.6386477,20.733002 19.6436986,20.7267291 C19.6711527,20.6927576 19.6977923,20.6590305 19.722721,20.6257108 L19.722721,20.6257108 L11.334778,9.46831772 C11.2784847,9.39336864 11.220888,9.32118941 11.162558,9.25063951 C11.1446354,9.22896945 11.1264684,9.20827699 11.1083014,9.18709572 C11.0672424,9.13878615 11.025776,9.09120978 10.9838208,9.04501833 C10.9623136,9.02139308 10.9407251,8.99825662 10.9189735,8.97520163 C10.8784033,8.93202444 10.8373442,8.88990631 10.7959593,8.84868432 C10.7744521,8.82725866 10.7530265,8.80567006 10.7312749,8.7847332 C10.6847576,8.74000815 10.6376701,8.69674949 10.5903381,8.65438697 C10.5738004,8.63964155 10.5574257,8.62408147 10.5408065,8.60958045 C10.4766925,8.5536945 10.4118452,8.49984521 10.3461833,8.44827699 C10.3332301,8.43809369 10.3199511,8.42872505 10.306998,8.41870468 C10.2539633,8.37789002 10.2006843,8.33821589 10.1467536,8.30025255 C10.1240244,8.2841222 10.1011324,8.26896945 10.0782403,8.25340937 C10.0328635,8.22261507 9.98732383,8.19263544 9.94153971,8.16379633 C9.91677393,8.14823625 9.89192668,8.13292057 9.86707943,8.11793075 C9.82064358,8.08998778 9.77396334,8.0632668 9.72712016,8.03727902 C9.70390224,8.02440733 9.68076578,8.01120978 9.65738493,7.99874542 C9.59913646,7.96795112 9.54048065,7.93870468 9.48158045,7.91076171 C9.46993075,7.905222 9.45836253,7.89903055 9.44663136,7.89365377 C9.376,7.86098574 9.30487984,7.83076171 9.23343381,7.80241141 C9.21298574,7.79426477 9.19221181,7.78709572 9.17151935,7.77927495 C9.12019552,7.75980448 9.06870876,7.74114868 9.01689613,7.7238778 C8.99074542,7.7151609 8.96443177,7.70701426 8.93811813,7.69886762 C8.89078615,7.68420367 8.84337271,7.67035438 8.79571487,7.65748269 C8.76883096,7.65023218 8.74194705,7.64298167 8.7149002,7.63630143 C8.66487984,7.62391853 8.61469654,7.6128391 8.56435031,7.60249287 C8.54080652,7.59760489 8.51726273,7.59214664 8.49371894,7.58774745 C8.48695723,7.58652546 8.48035845,7.5847332 8.47359674,7.58359267 C10.5617434,5.2630224 12.0401955,4.8431446 13.6555112,6.99173931 L24.0559185,20.8230224 L24.0560815,20.8228595 L24.0560815,20.8230224 C26.6010916,24.2081141 31.1344521,23.9473401 35.0611324,21.7055479 C35.0623544,21.7051405 35.0637393,21.7046517 35.0649613,21.7041629 C35.0764481,21.6976456 35.0877719,21.6906395 35.0990957,21.6840407 C35.1935153,21.6298656 35.2875275,21.5745499 35.3811324,21.5180937 C35.3904196,21.5124725 35.3998697,21.5070957 35.4091568,21.5014745 C35.5121303,21.4389898 35.6144521,21.3749572 35.7163666,21.3098656 C35.7460204,21.2908839 35.7755112,21.2714134 35.805165,21.2521874 C35.8786477,21.204611 35.9518045,21.1563829 36.0247984,21.1074216 C36.0582811,21.0848554 36.0917637,21.0622077 36.125165,21.0393971 C36.1986477,20.9891324 36.271723,20.9382159 36.344554,20.8866477 C36.3724155,20.8668513 36.4004399,20.8473809 36.4283014,20.8274216 C36.5279348,20.7559756 36.626998,20.6834705 36.7252464,20.6094175 C36.7345336,20.6024929 36.7434949,20.5954053 36.7526191,20.5884807 C36.8412546,20.5214338 36.9292383,20.4533279 37.0167332,20.3844073 C37.0467128,20.3607821 37.0763666,20.3367495 37.1061018,20.3129613 C37.1742892,20.2583788 37.2421507,20.2032261 37.3095234,20.1474216 C37.3407251,20.1216782 37.3719267,20.0958534 37.4029654,20.0697841 C37.4751446,20.0091731 37.546835,19.947666 37.6180367,19.8857515 C37.6406843,19.8661181 37.6634134,19.8468106 37.6858982,19.8270143 C37.778444,19.7456293 37.8701752,19.6631853 37.9610102,19.5795193 C37.9809695,19.5611079 38.0006029,19.5423707 38.0204807,19.5238778 C38.0913564,19.4579715 38.1617434,19.3914949 38.2314786,19.3242851 C38.2614582,19.2953646 38.291112,19.2662811 38.3208473,19.2371976 C38.3818656,19.1774012 38.4424766,19.1171976 38.5025173,19.0565051 C38.5316823,19.0270143 38.5610102,18.9976049 38.5899308,18.9678697 C38.659666,18.8962607 38.7287495,18.8239185 38.7971813,18.7510061 C38.8137189,18.7334094 38.8305825,18.716057 38.8470387,18.6982974 C38.9302159,18.6089287 39.0121711,18.5184196 39.0932301,18.4271772 C39.1181589,18.3990713 39.1426802,18.3704766 39.167446,18.3421263 C39.224391,18.2770346 39.2809287,18.2116986 39.3367332,18.1457108 C39.3660611,18.1109246 39.3953075,18.076057 39.424391,18.0410265 C39.4768554,17.9779715 39.528668,17.9143462 39.5799919,17.8503951 C39.6071202,17.816831 39.6343299,17.7832668 39.6611324,17.7494582 C39.7287495,17.6639185 39.7954705,17.5777271 39.8611324,17.4908839 C39.8687902,17.4806191 39.8769369,17.4706802 39.8845947,17.4604969 C39.8820692,17.4638371 39.8791365,17.4673401 39.876611,17.4706802" fill="#000000" mask="url(#mask-2)"></path>
            </g>
        </g>
    </g>
</svg>
